# xmcd
#
# Track frame offsets: 
#        150
#        5532
#        40460
#        60780
#        79740
#        85097
#        112465
#        150012
#        178665
#
# Disc length: 3006 seconds
#
# Revision: 0
# Processed by: cddbd v1.5.2PL0 Copyright (c) Steve Scherf et al.
# Submitted via: ExactAudioCopy v0.95a5
#
DISCID=610bbc09
DTITLE=Alex Harvey - Dallas US Tour
DYEAR=1974
DGENRE=Rock
TTITLE0=Fanfare - Intro
TTITLE1=The Faith Healer
TTITLE2=Midnight Moses
TTITLE3=Next
TTITLE4=The Hot City Synphony Intro
TTITLE5=PT1 - Vambo
TTITLE6=PT2 - Man In The Jar
TTITLE7=Jumpin' Jack Flash
TTITLE8=Framed
EXTD=
EXTT0=
EXTT1=
EXTT2=
EXTT3=
EXTT4=
EXTT5=
EXTT6=
EXTT7=
EXTT8=
PLAYORDER=
